<?xml version="1.0" encoding="utf-8"?>
<!-- Generator: Adobe Illustrator 24.0.2, SVG Export Plug-In . SVG Version: 6.00 Build 0)  -->
<svg version="1.1" id="Layer_1" xmlns="http://www.w3.org/2000/svg" xmlns:xlink="http://www.w3.org/1999/xlink" x="0px" y="0px"
	 viewBox="0 0 495.9 121.5" style="enable-background:new 0 0 495.9 121.5;" xml:space="preserve">
<style type="text/css">
	.st0{fill:#FCFCFC;}
	.st1{fill:#FFFFFF;}
</style>
<path class="st0" d="M416.6,109.9c-2.3,0-5,0.1-13.7,4.2c-15.7,7.4-60.1,2.3-60.1-31.4c0-33.5,37.5-30.5,37.5-30.5
	c0.9,0,1.9,0.2,2.2-0.1c0.3-0.3-0.2-2.1-0.4-2.8c-0.1-0.5-4.5-15.3,4.2-28.6c10.5-16,28.7-16.2,30.2-16.2c1.6,0,19.7,0.1,30.2,16.2
	c8.7,13.3,4.4,28.1,4.2,28.6c-0.1,0.7-0.6,2.4-0.4,2.8c0.3,0.3,1.3,0.2,2.2,0.1c0,0,37.5-3,37.5,30.5c0,33.7-44.3,38.7-60.1,31.4
	C421.6,110.1,418.9,109.9,416.6,109.9z M430.1,95.7c15.4,8,42,4.5,42-13c0-13.2-14.9-19.3-26.3-17.1c-8.2,1.6-15.4,6.6-17.6,7.7
	c-2,1-2,0.1,0.7-3.4c3.8-5,12.5-14.8,6.3-32.6c-5.1-14.7-18.4-14.2-18.6-14.2s-13.5-0.5-18.6,14.2c-6.1,17.8,2.5,27.5,6.5,32.6
	c2.6,3.4,2.6,4.4,0.5,3.4c-2.2-1.1-9.4-6.1-17.6-7.7c-11.4-2.2-26.3,3.9-26.3,17.1c0,17.5,26.7,21.1,42,13
	c8.5-4.5,11.9-4.5,13.4-4.5C418.2,91.3,421.6,91.3,430.1,95.7z"/>
<g>
	<path class="st1" d="M52.6,36.3V4.8h12.5c6.6,0,9.5,1.9,11.2,4.8c0.9,1.7,1.5,3.5,1.5,10.9c0,7.4-0.5,9.3-1.5,11
		c-1.6,2.7-4.7,4.8-10.8,4.8H52.6z M65,31.3c4.9,0,5.4-2.7,5.4-7.9v-5.5c0-5.3-0.5-8.1-5.4-8.1h-5v21.6L65,31.3z"/>
	<path class="st1" d="M95.6,34.5c-2.1,0.9-4.2,2-5.8,2c-5.9,0-8.6-3.5-8.6-7.7c0-3.9,2.7-6.5,8.7-6.5h4.7v-2c0-1.2-0.7-2.2-2.7-2.2
		c-1.8,0-4.3,0.8-7.2,1.9l-1.7-4.7c4.5-1.4,7.4-1.8,9.3-1.8c6.2,0,9.6,2.4,9.6,8v9.8l1.8,3.6l-5.8,1.7L95.6,34.5z M90.9,26.2
		c-2.4,0-3,1.9-3,2.8c0,0.9,0.4,2.9,3.1,2.9c1.6,0,2.6-0.3,3.6-0.8v-4.9H90.9z"/>
	<path class="st1" d="M122.2,21.9c0-2.1-1-3.2-2.9-3.2c-1.5,0-2.4,0.5-3.8,1.1v16.4h-7.2V19.2l-1.6-4l5.8-2l2.2,2.4
		c2.2-0.8,4.6-1.9,7.1-1.9c6.1,0,7.7,3.8,7.7,7.8v14.9h-7.3L122.2,21.9z"/>
	<path class="st1" d="M134.3,4.8h7.3v5.7h-7.3V4.8z M134.3,13.8h7.3v22.4h-7.3V13.8z"/>
	<path class="st1" d="M144.9,33.6l3-4.3c3.4,1.9,5.7,2.5,8.2,2.5c1.9,0,3.1-1.2,3.1-2.5c0-1.6-3.6-2.1-5.4-2.6
		c-4-1.2-7.1-2.4-7.1-6.6c0-4.8,4.8-6.4,9.8-6.4c1.9,0,5.1,0.3,9.3,1.4l-1.2,4.7c-2.9-0.9-6.3-1.5-7.9-1.5c-2.4,0-3.1,0.9-3.1,1.6
		c0,1.1,3.1,1.5,5.4,2.1c5,1.1,7.5,2.7,7.5,7c0,4.5-4.6,7.6-10.4,7.6C152.6,36.6,149.7,36.2,144.9,33.6z"/>
	<path class="st1" d="M184.4,21.9c0-1.6-0.7-3.2-2.9-3.2c-1.4,0-2.3,0.5-3.8,1.1v16.4h-7.3V4.8h7.3v10.1c2.3-0.7,4.4-1.3,6.2-1.3
		c6.1,0,7.7,3.4,7.7,8.7v14h-7.2L184.4,21.9L184.4,21.9z"/>
	<path class="st1" d="M52.6,77.8V46.3h12.5c6.6,0,9.5,1.9,11.2,4.8c0.9,1.7,1.5,3.5,1.5,10.9c0,7.4-0.5,9.3-1.5,11
		c-1.6,2.7-4.7,4.8-10.8,4.8H52.6z M65,72.8c4.9,0,5.4-2.7,5.4-7.9v-5.5c0-5.4-0.5-8.1-5.4-8.1h-5v21.6L65,72.8z"/>
	<path class="st1" d="M82.3,46.3h7.3V52h-7.3V46.3z M82.3,55.3h7.3v22.5h-7.3V55.3z"/>
	<path class="st1" d="M107.8,76c-2.1,0.9-4.2,2-5.8,2c-5.9,0-8.6-3.5-8.6-7.7c0-3.9,2.7-6.5,8.7-6.5h4.7v-2c0-1.2-0.7-2.2-2.8-2.2
		c-1.8,0-4.3,0.8-7.2,1.9l-1.7-4.7c4.5-1.4,7.4-1.8,9.3-1.8c6.2,0,9.6,2.4,9.6,8v9.8l1.8,3.6l-5.8,1.7L107.8,76z M103.1,67.7
		c-2.4,0-3,1.9-3,2.8c0,0.9,0.4,2.9,3.1,2.9c1.6,0,2.6-0.3,3.6-0.8v-4.9H103.1z"/>
	<path class="st1" d="M124.9,78.2l-5.6-1.4l1.2-3.7V46.3h7.2v10.1c1.8-0.5,4.6-1.2,6.3-1.2c6.8,0,7.8,3.8,7.8,10.9
		c0,6.7-2.4,11.9-9.6,11.9c-1.6,0-3.5-1.2-5.5-2L124.9,78.2z M127.7,72c0.9,0.6,2,0.9,3.4,0.9c2.7,0,3.4-1.3,3.4-6.4
		c0-5.1-0.1-6.2-3-6.2c-0.9,0-2.4,0.1-3.8,0.6L127.7,72L127.7,72z"/>
	<path class="st1" d="M168.1,65.1v3.5H153c0.1,2,0.4,4.6,3.7,4.6c2.3,0,4.8-0.9,8.1-2.7l2.2,4.7c-3,1.6-7.6,2.9-10.2,2.9
		c-8.7,0-11.4-3.8-11.4-11.8c0-8,3.4-11.2,11.3-11.2C164.1,55,168.1,57.9,168.1,65.1z M153,64.8h7.6c-0.2-3.1-1.2-4.8-3.8-4.8
		C154.2,60,153.1,61.7,153,64.8z"/>
	<path class="st1" d="M174.5,71.5V59.8H171v-4.5h3.5v-1.9l3.2-4.9h4v6.8h6.4v4.5h-6.4v9.8c0,2.7,0.9,3,1.7,3c2.1,0,3.4-0.4,5.1-0.9
		l1.4,4.7c-2.7,0.9-5.3,1.6-8.2,1.6C177.2,78,174.5,75.7,174.5,71.5z"/>
	<path class="st1" d="M214.9,65.1v3.5h-15.1c0.1,2,0.4,4.6,3.7,4.6c2.3,0,4.8-0.9,8.1-2.7l2.2,4.7c-3,1.6-7.6,2.9-10.2,2.9
		c-8.7,0-11.4-3.8-11.4-11.8c0-8,3.4-11.2,11.3-11.2C210.9,55,214.9,57.9,214.9,65.1z M199.9,64.8h7.6c-0.2-3.1-1.2-4.8-3.8-4.8
		C201,60,199.9,61.7,199.9,64.8z"/>
	<path class="st1" d="M217.6,75.1l3-4.3c3.4,1.9,5.7,2.5,8.2,2.5c1.9,0,3.1-1.2,3.1-2.5c0-1.6-3.6-2.1-5.4-2.7
		c-4-1.2-7.1-2.4-7.1-6.6c0-4.8,4.8-6.4,9.8-6.4c1.9,0,5.1,0.3,9.4,1.4l-1.2,4.7c-2.9-0.9-6.3-1.5-7.9-1.5c-2.4,0-3.1,0.9-3.1,1.6
		c0,1.1,3.1,1.5,5.4,2.1c5,1.2,7.5,2.8,7.5,7c0,4.5-4.6,7.6-10.4,7.6C225.3,78.1,222.4,77.7,217.6,75.1z"/>
	<path class="st1" d="M69.8,108.8H55.1l-2.8,7.7h-2.2L61.6,85h1.7l11.5,31.5h-2.1L69.8,108.8z M55.8,107.1h13.5l-6.8-18.8
		L55.8,107.1z"/>
	<path class="st1" d="M76.1,114.4l0.8-1.8c2.3,1.2,5.1,2.2,7.3,2.2c4.6,0,6.4-1.9,6.4-4.8c0-1.9-2.4-3-4.1-3.6l-3.9-1.4
		c-3.5-1.3-5.7-2.9-5.7-5.6c0-3.8,2.3-5.6,6.7-5.6c1.9,0,5.3,0.6,8.2,1.9L91,97.3c-3.1-1.3-5.3-1.7-7-1.7c-3.1,0-4.9,1.1-4.9,3.5
		c0,1.6,1.4,2.9,3.5,3.8c1.1,0.4,2.3,0.8,3.4,1.2c4.5,1.7,6.6,2.5,6.6,5.9c0,3.7-2.1,6.7-8.5,6.7C82.4,116.7,79,115.9,76.1,114.4z"
		/>
	<path class="st1" d="M95.5,114.4l0.8-1.8c2.3,1.2,5.1,2.2,7.3,2.2c4.6,0,6.4-1.9,6.4-4.8c0-1.9-2.4-3-4.1-3.6l-3.9-1.4
		c-3.5-1.3-5.7-2.9-5.7-5.6c0-3.8,2.3-5.6,6.7-5.6c1.9,0,5.3,0.6,8.2,1.9l-0.8,1.7c-3.1-1.3-5.3-1.7-7-1.7c-3.1,0-4.9,1.1-4.9,3.5
		c0,1.6,1.4,2.9,3.5,3.8c1.1,0.4,2.3,0.8,3.4,1.2c4.5,1.7,6.6,2.5,6.6,5.9c0,3.7-2.1,6.7-8.4,6.7C101.8,116.7,98.3,115.9,95.5,114.4
		z"/>
	<path class="st1" d="M124.3,93.9c6.6,0,8.5,3.8,8.5,11.4c0,7.6-1.9,11.4-8.5,11.4c-6.6,0-8.6-3.8-8.6-11.4
		C115.7,97.7,117.6,93.9,124.3,93.9z M124.3,95.6c-5.3,0-6.3,3.3-6.3,9.6c0,6.3,0.9,9.7,6.3,9.7c5.3,0,6.2-3.4,6.2-9.7
		C130.5,98.9,129.6,95.6,124.3,95.6z"/>
	<path class="st1" d="M137.1,105.3c0-7.7,2-11.4,8.3-11.4c2.5,0,5.3,0.9,7.6,2l-0.8,1.8c-1.9-1-3.8-1.9-6.5-1.9
		c-5.3,0-6.2,3.2-6.2,9.6c0,6.2,0.9,9.5,6.2,9.5c2.7,0,5.1-0.9,7.2-2.1l0.8,1.7c-3,1.6-6.1,2.3-8,2.3
		C139,116.7,137.1,112.9,137.1,105.3z"/>
	<path class="st1" d="M158.3,85h2.1v2.2h-2.1V85z M158.3,94h2.1v22.5h-2.1V94z"/>
	<path class="st1" d="M179.4,114.9c-2.2,0.7-6,1.9-7.2,1.9c-4.4,0-7-2.9-7-6.4c0-3.2,1.4-6.7,6.5-6.7h7.6v-3.4
		c0-3.1-1.4-4.5-5.2-4.5c-1.7,0-4.1,0.7-6.5,1.8l-0.8-1.7c2.1-1,5.3-2,7.5-2c4.7,0,7.1,1.1,7.1,6.3v14.1l0.6,2l-1.7,0.4L179.4,114.9
		z M172.5,105.4c-4.3,0-5.3,1.8-5.3,4.8c0,2.6,1.1,4.9,5.9,4.9c0.8,0,4.2-1.1,6.3-1.9v-7.8L172.5,105.4L172.5,105.4z"/>
	<path class="st1" d="M189.2,111.8V96.1h-2.7v-1.8h2.7v-3.7l1-3.3h1.1v6.9h5.7v1.8h-5.7v15c0,2.6,1,3.8,3.6,3.8
		c1.2,0,2.7-0.5,4.2-1.1l0.5,1.8c-1.6,0.6-3.7,1.2-5.3,1.2C191.2,116.7,189.2,115,189.2,111.8z"/>
	<path class="st1" d="M203.4,85h2.1v2.2h-2.1V85z M203.4,94h2.1v22.5h-2.1V94z"/>
	<path class="st1" d="M219.4,93.9c6.6,0,8.6,3.8,8.6,11.4c0,7.6-1.9,11.4-8.6,11.4s-8.6-3.8-8.6-11.4
		C210.9,97.7,212.8,93.9,219.4,93.9z M219.4,95.6c-5.3,0-6.2,3.3-6.2,9.6c0,6.3,0.9,9.7,6.2,9.7c5.3,0,6.2-3.4,6.2-9.7
		C225.7,98.9,224.7,95.6,219.4,95.6z"/>
	<path class="st1" d="M235.3,95.9c1.8-0.5,5.9-2.1,8.6-2.1c2.9,0,5.4,1.8,5.4,7.4v15.3h-2.1v-13.3c0-3.9-0.2-7.4-4.2-7.4
		c-1.8,0-4.9,0.9-7.7,2.1v18.6h-2.1V97l-0.8-2.5l2-0.6L235.3,95.9z"/>
</g>
<rect x="7.7" y="4.6" class="st1" width="2.7" height="112.4"/>
<rect x="287.9" y="4.6" class="st1" width="2.7" height="112.4"/>
</svg>
