<svg xmlns="http://www.w3.org/2000/svg" width="64.013" height="55.292" viewBox="0 0 64.013 55.292"><g transform="translate(-425.059 -433.438)"><path d="M48.01,0l16,27.646-16,27.646H16L0,27.646,16,0Z" transform="translate(425.059 433.437)" fill="#22a5f1" opacity="0.8"/><path d="M12.538,4.572,14,3.111a1.573,1.573,0,0,1,2.231,0L29.025,15.9a1.573,1.573,0,0,1,0,2.231L16.23,30.925a1.573,1.573,0,0,1-2.231,0l-1.461-1.461a1.581,1.581,0,0,1,.026-2.257L20.5,19.651H1.58A1.576,1.576,0,0,1,0,18.071V15.965a1.576,1.576,0,0,1,1.58-1.58H20.5L12.564,6.83A1.57,1.57,0,0,1,12.538,4.572Z" transform="translate(442.553 444.207)" fill="#fff"/></g></svg>