<svg xmlns="http://www.w3.org/2000/svg" width="154.087" height="30.557" viewBox="0 0 154.087 30.557">
  <g id="Group_4" data-name="Group 4" transform="translate(-55.583 -27.003)">
    <path id="Path_1" data-name="Path 1" d="M193.157,52.93a6.6,6.6,0,0,0-3.072.943c-3.511,1.647-13.442.523-13.442-7.015,0-7.5,8.4-6.82,8.4-6.82.194.012.427.045.492-.031s-.049-.465-.084-.615A8.213,8.213,0,0,1,186.392,33a8.128,8.128,0,0,1,13.528,0,8.22,8.22,0,0,1,.944,6.394c-.035.15-.144.545-.084.615s.3.043.491.031c0,0,8.4-.675,8.4,6.82,0,7.538-9.9,8.648-13.458,7.025A6.983,6.983,0,0,0,193.157,52.93Zm3-3.163c3.434,1.8,9.4,1,9.4-2.913,0-2.946-3.333-4.309-5.873-3.815a13.154,13.154,0,0,0-3.943,1.726c-.441.233-.441.02.148-.758a6.925,6.925,0,0,0,1.418-7.295,4.311,4.311,0,0,0-8.316,0,6.861,6.861,0,0,0,1.447,7.295c.591.756.591.991.119.758a13.622,13.622,0,0,0-3.943-1.726c-2.539-.494-5.872.869-5.872,3.815,0,3.917,5.973,4.722,9.4,2.913a5.008,5.008,0,0,1,6.008,0Z" fill="#fff"/>
    <g id="Group_3" data-name="Group 3">
      <g id="Group_1" data-name="Group 1">
        <path id="Path_2" data-name="Path 2" d="M72.456,46.243a1.558,1.558,0,0,1,1.75-1.695,5.284,5.284,0,0,1,1.836.42l-.267.785a4.2,4.2,0,0,0-1.373-.337c-.7,0-.938.322-.938,1.009V47.63h2.549v.8H73.464V54.6H72.456V48.428h-.715v-.8h.715Z" fill="#fff"/>
        <path id="Path_3" data-name="Path 3" d="M80.605,47.419c2.17,0,2.773,1.191,2.773,3.628s-.6,3.628-2.773,3.628-2.774-1.191-2.774-3.628S78.433,47.419,80.605,47.419Zm0,.869c-1.5,0-1.724.813-1.724,2.745s.225,2.774,1.724,2.774,1.722-.84,1.722-2.774S82.1,48.288,80.605,48.288Z" fill="#fff"/>
        <path id="Path_4" data-name="Path 4" d="M89.817,48.372a1.673,1.673,0,0,0-.281-.015,2.654,2.654,0,0,0-.728.126,6.181,6.181,0,0,0-1.387.786V54.6H86.4V48.428l-.267-.729.827-.28.42.841c.743-.406,1.093-.63,1.387-.757a2.551,2.551,0,0,1,.813-.168.706.706,0,0,1,.266.042Z" fill="#fff"/>
        <path id="Path_5" data-name="Path 5" d="M91.9,51.047c0-2.437.6-3.628,2.773-3.628,2.1,0,2.76,1.135,2.76,3.628v.448H92.951c.013,1.276.14,2.312,1.667,2.312a5.223,5.223,0,0,0,2.184-.729l.351.8a5.98,5.98,0,0,1-2.577.8C92.488,54.675,91.9,53.484,91.9,51.047Zm1.037-.363h3.445c0-1.906-.5-2.382-1.709-2.382C93.483,48.3,92.951,48.722,92.937,50.684Z" fill="#fff"/>
        <path id="Path_6" data-name="Path 6" d="M101.743,48.021a10.415,10.415,0,0,1,2.423-.588c.98,0,1.849.588,1.849,2.465V54.6h-1.008V50.4c0-1.121-.056-2.1-1.079-2.1a6.248,6.248,0,0,0-2.157.589V54.6h-1.023V48.413l-.266-.7.967-.281Z" fill="#fff"/>
        <path id="Path_7" data-name="Path 7" d="M109.638,44.632h1.009v1.051h-1.009Zm0,2.885h1.009V54.6h-1.009Z" fill="#fff"/>
        <path id="Path_8" data-name="Path 8" d="M115.617,48.021a10.424,10.424,0,0,1,2.424-.588c.98,0,1.848.588,1.848,2.465V54.6H118.88V50.4c0-1.121-.055-2.1-1.078-2.1a6.248,6.248,0,0,0-2.157.589V54.6h-1.022V48.413l-.267-.7.967-.281Z" fill="#fff"/>
        <path id="Path_9" data-name="Path 9" d="M127.365,54.142a9.938,9.938,0,0,1-2.074.547c-1.737,0-2.254-1.344-2.254-3.263V50.137c0-1.933.812-2.7,2.156-2.7a8.477,8.477,0,0,1,2.158.588l.307-.574.98.267-.293.7v6.164c0,2.1-.925,2.983-2.675,2.983a6.976,6.976,0,0,1-2.69-.812l.35-.813a5.741,5.741,0,0,0,2.312.744c1.219,0,1.68-.645,1.709-1.99Zm-.029-5.266a5.925,5.925,0,0,0-1.975-.574c-1.022,0-1.3.742-1.3,2.115v.7c0,2.466.435,2.676,1.5,2.676a7.075,7.075,0,0,0,1.778-.463Z" fill="#fff"/>
        <path id="Path_10" data-name="Path 10" d="M131.367,51.047c0-2.437.6-3.628,2.773-3.628,2.1,0,2.76,1.135,2.76,3.628v.448h-4.482c.013,1.276.139,2.312,1.667,2.312a5.223,5.223,0,0,0,2.184-.729l.351.8a5.98,5.98,0,0,1-2.577.8C131.956,54.675,131.367,53.484,131.367,51.047Zm1.037-.363h3.445c0-1.906-.5-2.382-1.709-2.382S132.418,48.722,132.4,50.684Z" fill="#fff"/>
        <path id="Path_11" data-name="Path 11" d="M140.887,48.021a10.411,10.411,0,0,1,2.424-.588c.981,0,1.849.588,1.849,2.465V54.6h-1.009V50.4c0-1.121-.056-2.1-1.078-2.1a6.243,6.243,0,0,0-2.157.589V54.6h-1.023V48.413l-.266-.7.966-.281Z" fill="#fff"/>
      </g>
      <g id="Group_2" data-name="Group 2">
        <path id="Path_12" data-name="Path 12" d="M77.2,38.642a9.034,9.034,0,0,1-2.345.724c-2.1,0-3.224-1.776-3.259-3.742,0-.448,0-1.189.018-2.379a2.624,2.624,0,0,1,2.741-2.81,11.581,11.581,0,0,1,2.621.62V27H79.01V37.47l.6,1.5-1.758.413Zm-.224-6.19a8.369,8.369,0,0,0-1.931-.483c-1,0-1.293.776-1.328,1.862-.017.241-.017.654-.017,1.189,0,2.122.327,2.829,1.742,2.829a3.833,3.833,0,0,0,1.534-.466Z" fill="#fff"/>
        <path id="Path_13" data-name="Path 13" d="M83.032,27h2.035v1.759H83.032Zm0,3.535h2.035v8.725H83.032Z" fill="#fff"/>
        <path id="Path_14" data-name="Path 14" d="M93.828,38.642a8.238,8.238,0,0,1-2.241.724c-2.052,0-3.225-1.07-3.225-2.81,0-1.432.793-2.587,3-2.587H93.6v-.88c0-.758-.362-1.172-1.4-1.172a7.627,7.627,0,0,0-2.708.725l-.552-1.4a9.942,9.942,0,0,1,3.363-.828c2.155,0,3.327.621,3.327,2.862V37.47l.6,1.516-1.758.4Zm-2.121-3.415c-1.189,0-1.465.656-1.465,1.311,0,.6.345,1.328,1.655,1.328a3.849,3.849,0,0,0,1.707-.483V35.227Z" fill="#fff"/>
        <path id="Path_15" data-name="Path 15" d="M100.8,39.383l-1.724-.4.431-1.414V27h2.052v4.052a11.85,11.85,0,0,1,2.863-.62c1.741,0,2.517,1.207,2.517,2.81,0,1.758.018,2.068.018,2.447,0,1.967-.984,3.674-3.26,3.674a9.13,9.13,0,0,1-2.361-.724Zm.759-2a4.615,4.615,0,0,0,1.707.466c1.363,0,1.6-.707,1.6-2.829,0-.535,0-.948-.017-1.189-.035-1.086-.19-1.862-1.19-1.862a7.72,7.72,0,0,0-2.1.483Z" fill="#fff"/>
        <path id="Path_16" data-name="Path 16" d="M117.649,34.606v.95h-5.708c.053,1.171.156,2.24,1.76,2.24a5.983,5.983,0,0,0,2.828-.913l.637,1.38a7.682,7.682,0,0,1-3.483,1.086c-2.966,0-3.862-1.466-3.862-4.518,0-3.069,1.016-4.414,3.914-4.414C116.442,30.417,117.649,31.658,117.649,34.606Zm-5.708-.275h3.6c-.035-1.793-.552-2.346-1.794-2.346C112.494,31.985,111.959,32.5,111.941,34.331Z" fill="#fff"/>
        <path id="Path_17" data-name="Path 17" d="M121.222,37.038V31.882h-1.189V30.52h1.189v-.982l.949-1.674h1.086V30.52h2.311v1.362h-2.311V36.5c0,.967.329,1.207.914,1.207a5.653,5.653,0,0,0,1.845-.414l.413,1.467a7.7,7.7,0,0,1-2.707.586A2.189,2.189,0,0,1,121.222,37.038Z" fill="#fff"/>
        <path id="Path_18" data-name="Path 18" d="M136.175,34.606v.95h-5.707c.051,1.171.155,2.24,1.758,2.24a5.973,5.973,0,0,0,2.828-.913l.639,1.38a7.686,7.686,0,0,1-3.482,1.086c-2.967,0-3.864-1.466-3.864-4.518,0-3.069,1.018-4.414,3.914-4.414C134.968,30.417,136.175,31.658,136.175,34.606Zm-5.707-.275h3.6c-.035-1.793-.553-2.346-1.793-2.346C131.019,31.985,130.486,32.5,130.468,34.331Z" fill="#fff"/>
        <path id="Path_19" data-name="Path 19" d="M138.386,38.3l.811-1.344a6.465,6.465,0,0,0,3.017.947c.829,0,1.707-.447,1.707-1.293,0-.568-.689-.827-1.292-1-2.293-.654-3.69-1.086-3.69-2.793,0-1.689,1.293-2.378,3.172-2.378a11.5,11.5,0,0,1,3.586.654L145.25,32.5a9.113,9.113,0,0,0-2.914-.638c-.76,0-1.415.293-1.415.88,0,.793,1.655,1.051,2.276,1.224,1.863.516,2.775.983,2.775,2.569,0,1.638-1.308,2.828-3.722,2.828A8.014,8.014,0,0,1,138.386,38.3Z" fill="#fff"/>
      </g>
    </g>
    <rect id="Rectangle_2" data-name="Rectangle 2" width="1.063" height="27.653" transform="translate(160.895 27.087)" fill="#fff"/>
    <rect id="Rectangle_3" data-name="Rectangle 3" width="1.063" height="27.653" transform="translate(55.583 27.087)" fill="#fff"/>
  </g>
</svg>
