<svg xmlns="http://www.w3.org/2000/svg" width="24" height="23.948" viewBox="0 0 24 23.948"><g transform="translate(-4.014 -4.051)"><path d="M39.844,8.327V23.8a1.792,1.792,0,0,1-1.218,1.692L33.2,27.976l.492-6.512v-10.8L33.2,4.15l5.426,2.485A1.792,1.792,0,0,1,39.844,8.327Z" transform="translate(-11.83 -0.038)" fill="#fff"/><path d="M7.081,22.411l15.38-11.624V4.852a.8.8,0,0,0-1.4-.529L4.41,19.546a1.231,1.231,0,0,0,.066,1.865s.815.758,1.109.968A1.268,1.268,0,0,0,7.081,22.411Z" transform="translate(0)" fill="#fff"/><path d="M7.081,13.961l15.38,11.624V31.52a.8.8,0,0,1-1.4.529L4.41,16.825a1.231,1.231,0,0,1,.066-1.865s.815-.758,1.109-.968A1.268,1.268,0,0,1,7.081,13.961Z" transform="translate(0 -4.323)" fill="#fff"/></g></svg>