<svg xmlns="http://www.w3.org/2000/svg" width="24.394" height="23.948" viewBox="0 0 24.394 23.948"><path d="M20.074.45H4.32A4.331,4.331,0,0,0,0,4.8V20.048A4.331,4.331,0,0,0,4.32,24.4H20.074a4.331,4.331,0,0,0,4.32-4.35V4.8A4.331,4.331,0,0,0,20.074.45Zm3.293,19.2A3.721,3.721,0,0,1,22.3,22.281a3.67,3.67,0,0,1-2.608,1.093H4.706a3.709,3.709,0,0,1-3.69-3.715V5.188a3.709,3.709,0,0,1,3.69-3.715H19.678a3.7,3.7,0,0,1,3.69,3.715ZM9.646,11.656l2.846,5.506c.051.082.02.164-.061.164H10.662a.2.2,0,0,1-.213-.133c-.651-1.351-1.311-2.7-1.992-4.155h-.02C7.826,14.409,7.155,15.852,6.5,17.2a.2.2,0,0,1-.183.113H4.645c-.1,0-.112-.082-.061-.143L7.369,11.83l-2.693-5.4a.083.083,0,0,1,.061-.143H6.485a.16.16,0,0,1,.183.113c.64,1.351,1.291,2.743,1.9,4.1h.02c.59-1.351,1.24-2.753,1.87-4.094.051-.082.081-.133.183-.133h1.636c.081,0,.112.061.061.143Zm3.344,1.668a3.991,3.991,0,0,1,4.076-4.247,4.477,4.477,0,0,1,.529.02V6.386a.1.1,0,0,1,.1-.1H19.3c.081,0,.1.031.1.082V15.76a7.339,7.339,0,0,0,.051,1c0,.061-.02.082-.081.113a6.02,6.02,0,0,1-2.6.594C14.565,17.48,12.99,16.108,12.99,13.325Zm4.6-2.62a1.528,1.528,0,0,0-.59-.1c-1.281,0-2.175.993-2.175,2.64,0,1.883.915,2.64,2.063,2.64a1.906,1.906,0,0,0,.7-.113V10.7Z" transform="translate(0 -0.45)" fill="#fff"/></svg>